<mxfile host="app.diagrams.net" modified="2023-10-28T03:15:06.285Z" agent="Mozilla/5.0 (Macintosh; Intel Mac OS X 10_15_7) AppleWebKit/605.1.15 (KHTML, like Gecko) Version/15.6 Safari/605.1.15" etag="hTq_jdYIb5bezY6qClTB" version="22.0.8" type="github">
  <diagram name="Page-1" id="VdK0MEr7L4QaRIki6hEE">
    <mxGraphModel dx="2103" dy="654" grid="1" gridSize="10" guides="1" tooltips="1" connect="1" arrows="1" fold="1" page="1" pageScale="1" pageWidth="827" pageHeight="1169" math="0" shadow="0">
      <root>
        <mxCell id="0" />
        <mxCell id="1" parent="0" />
        <mxCell id="ehw57DtEFJ7WW9thNjO3-1" value="&lt;ol style=&quot;list-style-type: lower-roman&quot;&gt;&#xa;&lt;li style=&quot;margin: 0.0px 0.0px 0.0px 0.0px; font: 10.0px Verdana; color: #000000&quot;&gt;This use case begins when the student log in his id and password [&lt;b&gt;R1&lt;/b&gt;: Alphanumeric SRS_REQ_104]. (SRS_REQ_101)&lt;/li&gt;&#xa;&lt;li style=&quot;margin: 0.0px 0.0px 0.0px 0.0px; font: 10.0px Verdana; color: #000000&quot;&gt;The Course Registration System (CRS) verifies the student id and password (SRS_REQ_102). If the invalid id and password entered [&lt;b&gt;E1&lt;/b&gt;: Invalid Id and Password (SRS_REQ_103)]&lt;/li&gt;&#xa;&lt;li style=&quot;margin: 0.0px 0.0px 0.0px 0.0px; font: 10.0px Verdana; color: #000000&quot;&gt;The CRS prompts the student to select current or future semester.&lt;/li&gt;&#xa;&lt;li style=&quot;margin: 0.0px 0.0px 0.0px 0.0px; font: 10.0px Verdana; color: #000000&quot;&gt;The student enters his desired semester.&lt;/li&gt;&#xa;&lt;li style=&quot;margin: 0.0px 0.0px 0.0px 0.0px; font: 10.0px Verdana; color: #000000&quot;&gt;The CRS prompts the student to select the desired activities:&lt;/li&gt;&#xa;&lt;ol style=&quot;list-style-type: lower-alpha&quot;&gt;&#xa;&lt;li style=&quot;margin: 0.0px 0.0px 0.0px 0.0px; font: 10.0px Verdana; color: #000000&quot;&gt;[&lt;b&gt;A1&lt;/b&gt;: Create a schedule]&lt;/li&gt;&#xa;&lt;li style=&quot;margin: 0.0px 0.0px 0.0px 0.0px; font: 10.0px Verdana; color: #000000&quot;&gt;[&lt;b&gt;A2&lt;/b&gt;: Review a schedule]&lt;/li&gt;&#xa;&lt;li style=&quot;margin: 0.0px 0.0px 0.0px 0.0px; font: 10.0px Verdana; color: #000000&quot;&gt;[&lt;b&gt;A3&lt;/b&gt;: Change a schedule]&lt;/li&gt;&#xa;&lt;/ol&gt;&#xa;&lt;li style=&quot;margin: 0.0px 0.0px 0.0px 0.0px; font: 10.0px Verdana; color: #000000&quot;&gt;The student indicates that the activity is completed.&lt;/li&gt;&#xa;&lt;li style=&quot;margin: 0.0px 0.0px 0.0px 0.0px; font: 10.0px Verdana; color: #000000&quot;&gt;The CRS will print the student schedule and notify the student that registration is completed.&lt;/li&gt;&#xa;&lt;li style=&quot;margin: 0.0px 0.0px 0.0px 0.0px; font: 10.0px Verdana; color: #000000&quot;&gt;The CRS sends billing information for the student to the billing system for processing.&lt;/li&gt;&#xa;&lt;li style=&quot;margin: 0.0px 0.0px 0.0px 0.0px; font: 10.0px Verdana; color: #000000&quot;&gt;This use case ends.&lt;/li&gt;&#xa;&lt;/ol&gt;" style="text;whiteSpace=wrap;html=1;" vertex="1" parent="1">
          <mxGeometry x="80" width="560" height="430" as="geometry" />
        </mxCell>
        <mxCell id="ehw57DtEFJ7WW9thNjO3-2" value="Student" style="shape=umlActor;verticalLabelPosition=bottom;verticalAlign=top;html=1;outlineConnect=0;" vertex="1" parent="1">
          <mxGeometry x="120" y="520" width="30" height="60" as="geometry" />
        </mxCell>
        <mxCell id="ehw57DtEFJ7WW9thNjO3-4" value="Login" style="ellipse;whiteSpace=wrap;html=1;" vertex="1" parent="1">
          <mxGeometry x="294" y="440" width="120" height="80" as="geometry" />
        </mxCell>
        <mxCell id="ehw57DtEFJ7WW9thNjO3-5" value="" style="endArrow=classic;html=1;rounded=0;entryX=0;entryY=0.5;entryDx=0;entryDy=0;" edge="1" parent="1" source="ehw57DtEFJ7WW9thNjO3-2" target="ehw57DtEFJ7WW9thNjO3-4">
          <mxGeometry width="50" height="50" relative="1" as="geometry">
            <mxPoint x="160" y="555" as="sourcePoint" />
            <mxPoint x="210" y="505" as="targetPoint" />
          </mxGeometry>
        </mxCell>
        <mxCell id="ehw57DtEFJ7WW9thNjO3-6" value="Register Course" style="ellipse;whiteSpace=wrap;html=1;" vertex="1" parent="1">
          <mxGeometry x="300" y="580" width="120" height="80" as="geometry" />
        </mxCell>
        <mxCell id="ehw57DtEFJ7WW9thNjO3-7" value="" style="endArrow=classic;html=1;rounded=0;entryX=-0.017;entryY=0.588;entryDx=0;entryDy=0;entryPerimeter=0;" edge="1" parent="1" target="ehw57DtEFJ7WW9thNjO3-6">
          <mxGeometry width="50" height="50" relative="1" as="geometry">
            <mxPoint x="160" y="553" as="sourcePoint" />
            <mxPoint x="304" y="490" as="targetPoint" />
          </mxGeometry>
        </mxCell>
        <mxCell id="ehw57DtEFJ7WW9thNjO3-8" value="Print Schedule" style="ellipse;whiteSpace=wrap;html=1;" vertex="1" parent="1">
          <mxGeometry x="490" y="440" width="120" height="80" as="geometry" />
        </mxCell>
        <mxCell id="ehw57DtEFJ7WW9thNjO3-9" value="Biling System" style="ellipse;whiteSpace=wrap;html=1;" vertex="1" parent="1">
          <mxGeometry x="690" y="440" width="120" height="80" as="geometry" />
        </mxCell>
        <mxCell id="ehw57DtEFJ7WW9thNjO3-10" value="" style="endArrow=classic;html=1;rounded=0;entryX=0.5;entryY=1;entryDx=0;entryDy=0;exitX=1;exitY=0.5;exitDx=0;exitDy=0;" edge="1" parent="1" source="ehw57DtEFJ7WW9thNjO3-6" target="ehw57DtEFJ7WW9thNjO3-8">
          <mxGeometry width="50" height="50" relative="1" as="geometry">
            <mxPoint x="380" y="633" as="sourcePoint" />
            <mxPoint x="524" y="570" as="targetPoint" />
          </mxGeometry>
        </mxCell>
        <mxCell id="ehw57DtEFJ7WW9thNjO3-11" value="" style="endArrow=classic;html=1;rounded=0;entryX=0.5;entryY=1;entryDx=0;entryDy=0;exitX=1;exitY=0.625;exitDx=0;exitDy=0;exitPerimeter=0;" edge="1" parent="1" source="ehw57DtEFJ7WW9thNjO3-6" target="ehw57DtEFJ7WW9thNjO3-9">
          <mxGeometry width="50" height="50" relative="1" as="geometry">
            <mxPoint x="380" y="620" as="sourcePoint" />
            <mxPoint x="518" y="694" as="targetPoint" />
          </mxGeometry>
        </mxCell>
        <mxCell id="ehw57DtEFJ7WW9thNjO3-12" value="Login" style="shape=umlBoundary;whiteSpace=wrap;html=1;" vertex="1" parent="1">
          <mxGeometry x="290" y="1880" width="100" height="80" as="geometry" />
        </mxCell>
        <mxCell id="ehw57DtEFJ7WW9thNjO3-13" value="Register Course" style="shape=umlBoundary;whiteSpace=wrap;html=1;" vertex="1" parent="1">
          <mxGeometry x="430" y="1750" width="100" height="80" as="geometry" />
        </mxCell>
        <mxCell id="ehw57DtEFJ7WW9thNjO3-14" value="UserDb" style="ellipse;shape=umlEntity;whiteSpace=wrap;html=1;" vertex="1" parent="1">
          <mxGeometry x="540" y="1880" width="80" height="80" as="geometry" />
        </mxCell>
        <mxCell id="ehw57DtEFJ7WW9thNjO3-15" value="CourseDb" style="ellipse;shape=umlEntity;whiteSpace=wrap;html=1;" vertex="1" parent="1">
          <mxGeometry x="680" y="1750" width="80" height="80" as="geometry" />
        </mxCell>
        <mxCell id="ehw57DtEFJ7WW9thNjO3-27" value="Print Schedule" style="shape=umlBoundary;whiteSpace=wrap;html=1;" vertex="1" parent="1">
          <mxGeometry x="850" y="1650" width="100" height="80" as="geometry" />
        </mxCell>
        <mxCell id="ehw57DtEFJ7WW9thNjO3-28" value="Transaction Db" style="ellipse;shape=umlEntity;whiteSpace=wrap;html=1;" vertex="1" parent="1">
          <mxGeometry x="860" y="1820" width="80" height="80" as="geometry" />
        </mxCell>
        <mxCell id="ehw57DtEFJ7WW9thNjO3-31" value="Billing UI" style="shape=umlBoundary;whiteSpace=wrap;html=1;" vertex="1" parent="1">
          <mxGeometry x="850" y="2010" width="100" height="80" as="geometry" />
        </mxCell>
        <mxCell id="ehw57DtEFJ7WW9thNjO3-32" value="" style="html=1;verticalAlign=bottom;endArrow=block;curved=0;rounded=0;" edge="1" parent="1">
          <mxGeometry width="80" relative="1" as="geometry">
            <mxPoint x="899.5" y="1900" as="sourcePoint" />
            <mxPoint x="899.5" y="2010" as="targetPoint" />
          </mxGeometry>
        </mxCell>
        <mxCell id="ehw57DtEFJ7WW9thNjO3-33" value="" style="endArrow=classic;html=1;rounded=0;entryX=0.025;entryY=0.4;entryDx=0;entryDy=0;entryPerimeter=0;" edge="1" parent="1" target="ehw57DtEFJ7WW9thNjO3-15">
          <mxGeometry width="50" height="50" relative="1" as="geometry">
            <mxPoint x="530" y="1783" as="sourcePoint" />
            <mxPoint x="674" y="1720" as="targetPoint" />
          </mxGeometry>
        </mxCell>
        <mxCell id="ehw57DtEFJ7WW9thNjO3-34" value="" style="endArrow=classic;html=1;rounded=0;" edge="1" parent="1">
          <mxGeometry width="50" height="50" relative="1" as="geometry">
            <mxPoint x="680" y="1800" as="sourcePoint" />
            <mxPoint x="530" y="1800" as="targetPoint" />
          </mxGeometry>
        </mxCell>
        <mxCell id="ehw57DtEFJ7WW9thNjO3-35" value="" style="endArrow=classic;html=1;rounded=0;entryX=0.025;entryY=0.4;entryDx=0;entryDy=0;entryPerimeter=0;" edge="1" parent="1">
          <mxGeometry width="50" height="50" relative="1" as="geometry">
            <mxPoint x="390" y="1911.5" as="sourcePoint" />
            <mxPoint x="542" y="1910.5" as="targetPoint" />
          </mxGeometry>
        </mxCell>
        <mxCell id="ehw57DtEFJ7WW9thNjO3-36" value="" style="endArrow=classic;html=1;rounded=0;" edge="1" parent="1">
          <mxGeometry width="50" height="50" relative="1" as="geometry">
            <mxPoint x="540" y="1928.5" as="sourcePoint" />
            <mxPoint x="390" y="1928.5" as="targetPoint" />
          </mxGeometry>
        </mxCell>
        <mxCell id="ehw57DtEFJ7WW9thNjO3-37" value="" style="endArrow=classic;html=1;rounded=0;entryX=0.59;entryY=1.038;entryDx=0;entryDy=0;entryPerimeter=0;" edge="1" parent="1" target="ehw57DtEFJ7WW9thNjO3-27">
          <mxGeometry width="50" height="50" relative="1" as="geometry">
            <mxPoint x="760" y="1781" as="sourcePoint" />
            <mxPoint x="912" y="1780" as="targetPoint" />
            <Array as="points">
              <mxPoint x="910" y="1780" />
            </Array>
          </mxGeometry>
        </mxCell>
        <mxCell id="ehw57DtEFJ7WW9thNjO3-39" value="" style="endArrow=classic;html=1;rounded=0;" edge="1" parent="1">
          <mxGeometry width="50" height="50" relative="1" as="geometry">
            <mxPoint x="760" y="1797.96" as="sourcePoint" />
            <mxPoint x="900" y="1820" as="targetPoint" />
            <Array as="points">
              <mxPoint x="900" y="1797" />
            </Array>
          </mxGeometry>
        </mxCell>
        <mxCell id="ehw57DtEFJ7WW9thNjO3-41" value="Login Form" style="shape=umlLifeline;perimeter=lifelinePerimeter;whiteSpace=wrap;html=1;container=1;dropTarget=0;collapsible=0;recursiveResize=0;outlineConnect=0;portConstraint=eastwest;newEdgeStyle={&quot;curved&quot;:0,&quot;rounded&quot;:0};" vertex="1" parent="1">
          <mxGeometry x="200" y="760" width="100" height="790" as="geometry" />
        </mxCell>
        <mxCell id="ehw57DtEFJ7WW9thNjO3-44" value="Course Registration Form" style="shape=umlLifeline;perimeter=lifelinePerimeter;whiteSpace=wrap;html=1;container=1;dropTarget=0;collapsible=0;recursiveResize=0;outlineConnect=0;portConstraint=eastwest;newEdgeStyle={&quot;curved&quot;:0,&quot;rounded&quot;:0};" vertex="1" parent="1">
          <mxGeometry x="360" y="760" width="100" height="830" as="geometry" />
        </mxCell>
        <mxCell id="ehw57DtEFJ7WW9thNjO3-45" value="UserDb" style="shape=umlLifeline;perimeter=lifelinePerimeter;whiteSpace=wrap;html=1;container=1;dropTarget=0;collapsible=0;recursiveResize=0;outlineConnect=0;portConstraint=eastwest;newEdgeStyle={&quot;curved&quot;:0,&quot;rounded&quot;:0};" vertex="1" parent="1">
          <mxGeometry x="500" y="760" width="100" height="790" as="geometry" />
        </mxCell>
        <mxCell id="ehw57DtEFJ7WW9thNjO3-46" value="Printer" style="shape=umlLifeline;perimeter=lifelinePerimeter;whiteSpace=wrap;html=1;container=1;dropTarget=0;collapsible=0;recursiveResize=0;outlineConnect=0;portConstraint=eastwest;newEdgeStyle={&quot;curved&quot;:0,&quot;rounded&quot;:0};" vertex="1" parent="1">
          <mxGeometry x="810" y="760" width="100" height="770" as="geometry" />
        </mxCell>
        <mxCell id="ehw57DtEFJ7WW9thNjO3-47" value="Biling System" style="shape=umlLifeline;perimeter=lifelinePerimeter;whiteSpace=wrap;html=1;container=1;dropTarget=0;collapsible=0;recursiveResize=0;outlineConnect=0;portConstraint=eastwest;newEdgeStyle={&quot;curved&quot;:0,&quot;rounded&quot;:0};" vertex="1" parent="1">
          <mxGeometry x="940" y="760" width="100" height="780" as="geometry" />
        </mxCell>
        <mxCell id="ehw57DtEFJ7WW9thNjO3-48" value="1.Enter id &amp;amp; Pass" style="endArrow=block;endSize=16;endFill=0;html=1;rounded=0;" edge="1" parent="1">
          <mxGeometry width="160" relative="1" as="geometry">
            <mxPoint x="90" y="870" as="sourcePoint" />
            <mxPoint x="250" y="870" as="targetPoint" />
          </mxGeometry>
        </mxCell>
        <mxCell id="ehw57DtEFJ7WW9thNjO3-49" value="2.Verify id &amp;amp; Pass" style="endArrow=block;endSize=16;endFill=0;html=1;rounded=0;" edge="1" parent="1">
          <mxGeometry width="160" relative="1" as="geometry">
            <mxPoint x="254" y="890" as="sourcePoint" />
            <mxPoint x="549.5" y="890.5" as="targetPoint" />
            <Array as="points" />
          </mxGeometry>
        </mxCell>
        <mxCell id="ehw57DtEFJ7WW9thNjO3-50" value="3.Enter desired semester&amp;nbsp;&lt;br&gt;(current of future)" style="endArrow=block;endSize=16;endFill=0;html=1;rounded=0;" edge="1" parent="1" target="ehw57DtEFJ7WW9thNjO3-44">
          <mxGeometry width="160" relative="1" as="geometry">
            <mxPoint x="90" y="920" as="sourcePoint" />
            <mxPoint x="250" y="920" as="targetPoint" />
          </mxGeometry>
        </mxCell>
        <mxCell id="ehw57DtEFJ7WW9thNjO3-51" value="5.Indicate Registration Complete" style="endArrow=block;endSize=16;endFill=0;html=1;rounded=0;" edge="1" parent="1">
          <mxGeometry width="160" relative="1" as="geometry">
            <mxPoint x="90" y="960" as="sourcePoint" />
            <mxPoint x="410" y="960" as="targetPoint" />
          </mxGeometry>
        </mxCell>
        <mxCell id="ehw57DtEFJ7WW9thNjO3-52" value="6.Print Registration Info" style="endArrow=block;endSize=16;endFill=0;html=1;rounded=0;" edge="1" parent="1" target="ehw57DtEFJ7WW9thNjO3-46">
          <mxGeometry width="160" relative="1" as="geometry">
            <mxPoint x="410" y="980" as="sourcePoint" />
            <mxPoint x="710" y="980" as="targetPoint" />
          </mxGeometry>
        </mxCell>
        <mxCell id="ehw57DtEFJ7WW9thNjO3-53" value="8.Send billing info" style="endArrow=block;endSize=16;endFill=0;html=1;rounded=0;" edge="1" parent="1" target="ehw57DtEFJ7WW9thNjO3-47">
          <mxGeometry width="160" relative="1" as="geometry">
            <mxPoint x="410" y="1040" as="sourcePoint" />
            <mxPoint x="710" y="1040" as="targetPoint" />
          </mxGeometry>
        </mxCell>
        <mxCell id="ehw57DtEFJ7WW9thNjO3-54" value="7.Noti Registration completed" style="endArrow=block;endSize=16;endFill=0;html=1;rounded=0;" edge="1" parent="1" target="ehw57DtEFJ7WW9thNjO3-58">
          <mxGeometry width="160" relative="1" as="geometry">
            <mxPoint x="410" y="1010" as="sourcePoint" />
            <mxPoint x="80" y="1010" as="targetPoint" />
          </mxGeometry>
        </mxCell>
        <mxCell id="ehw57DtEFJ7WW9thNjO3-55" value="CourseDb" style="shape=umlLifeline;perimeter=lifelinePerimeter;whiteSpace=wrap;html=1;container=1;dropTarget=0;collapsible=0;recursiveResize=0;outlineConnect=0;portConstraint=eastwest;newEdgeStyle={&quot;curved&quot;:0,&quot;rounded&quot;:0};" vertex="1" parent="1">
          <mxGeometry x="650" y="760" width="100" height="790" as="geometry" />
        </mxCell>
        <mxCell id="ehw57DtEFJ7WW9thNjO3-56" value="4.To Store all reg course" style="endArrow=block;endSize=16;endFill=0;html=1;rounded=0;" edge="1" parent="1">
          <mxGeometry width="160" relative="1" as="geometry">
            <mxPoint x="410" y="940" as="sourcePoint" />
            <mxPoint x="700" y="941" as="targetPoint" />
            <Array as="points">
              <mxPoint x="520" y="940.5" />
            </Array>
          </mxGeometry>
        </mxCell>
        <mxCell id="ehw57DtEFJ7WW9thNjO3-57" value="Alt 1" style="shape=umlFrame;whiteSpace=wrap;html=1;pointerEvents=0;" vertex="1" parent="1">
          <mxGeometry x="-20" y="1110" width="1140" height="260" as="geometry" />
        </mxCell>
        <mxCell id="ehw57DtEFJ7WW9thNjO3-58" value="User" style="shape=umlLifeline;perimeter=lifelinePerimeter;whiteSpace=wrap;html=1;container=1;dropTarget=0;collapsible=0;recursiveResize=0;outlineConnect=0;portConstraint=eastwest;newEdgeStyle={&quot;curved&quot;:0,&quot;rounded&quot;:0};" vertex="1" parent="1">
          <mxGeometry x="40" y="760" width="100" height="790" as="geometry" />
        </mxCell>
        <mxCell id="ehw57DtEFJ7WW9thNjO3-59" value="Object" style="html=1;whiteSpace=wrap;" vertex="1" parent="1">
          <mxGeometry x="270" y="2260" width="110" height="50" as="geometry" />
        </mxCell>
        <mxCell id="ehw57DtEFJ7WW9thNjO3-60" value="Object" style="html=1;whiteSpace=wrap;" vertex="1" parent="1">
          <mxGeometry x="420" y="2260" width="110" height="50" as="geometry" />
        </mxCell>
        <mxCell id="ehw57DtEFJ7WW9thNjO3-61" value="Object" style="html=1;whiteSpace=wrap;" vertex="1" parent="1">
          <mxGeometry x="580" y="2260" width="110" height="50" as="geometry" />
        </mxCell>
        <mxCell id="ehw57DtEFJ7WW9thNjO3-62" value="software req" style="html=1;whiteSpace=wrap;" vertex="1" parent="1">
          <mxGeometry x="270" y="2340" width="110" height="50" as="geometry" />
        </mxCell>
        <mxCell id="ehw57DtEFJ7WW9thNjO3-63" value="software design" style="html=1;whiteSpace=wrap;" vertex="1" parent="1">
          <mxGeometry x="420" y="2340" width="110" height="50" as="geometry" />
        </mxCell>
        <mxCell id="ehw57DtEFJ7WW9thNjO3-64" value="software quality" style="html=1;whiteSpace=wrap;" vertex="1" parent="1">
          <mxGeometry x="580" y="2340" width="110" height="50" as="geometry" />
        </mxCell>
      </root>
    </mxGraphModel>
  </diagram>
</mxfile>
